<?xml version="1.0" encoding="utf-8"?>
<!-- Generator: Adobe Illustrator 18.0.0, SVG Export Plug-In . SVG Version: 6.00 Build 0)  -->
<!DOCTYPE svg PUBLIC "-//W3C//DTD SVG 1.1//EN" "http://www.w3.org/Graphics/SVG/1.1/DTD/svg11.dtd">
<svg version="1.1" id="Layer_1" xmlns="http://www.w3.org/2000/svg" xmlns:xlink="http://www.w3.org/1999/xlink" x="0px" y="0px"
	 viewBox="0 0 612 792" enable-background="new 0 0 612 792" xml:space="preserve">
<g>
	<g>
		<g>
			<path fill="#06A1F9" d="M256.6,445.7c7.5-8.9,14.8-17.6,22.1-26.3c53.1-63.3,106.2-126.6,159.4-189.9c3.4-4.1,5.8-4.2,10-0.8
				c18.1,15.2,36.1,30.3,54.2,45.5c0.5,0.4,1,0.9,1.5,1.3c2.8,2.5,3.1,5.3,0.7,8.2c-7.5,9-15,17.9-22.5,26.9
				c-54,64.3-108,128.7-161.9,193c-16.2,19.3-32.3,38.5-48.5,57.8c-3.1,3.7-5.8,4-9.5,0.9c-33.7-28.3-67.5-56.6-101.2-84.9
				c-17.2-14.4-34.3-28.8-51.5-43.2c-0.6-0.5-1.3-1-1.9-1.6c-2.9-2.5-3.1-5.4-0.6-8.4c6.1-7.3,12.2-14.6,18.4-21.9
				c9.4-11.2,18.7-22.3,28.1-33.5c3.7-4.5,6-4.6,10.4-0.9c30,25.2,60.1,50.4,90.1,75.6C254.7,444.1,255.5,444.8,256.6,445.7z"/>
		</g>
	</g>
</g>
</svg>
