<?xml version="1.0" encoding="utf-8"?>
<!-- Generator: Adobe Illustrator 18.0.0, SVG Export Plug-In . SVG Version: 6.00 Build 0)  -->
<!DOCTYPE svg PUBLIC "-//W3C//DTD SVG 1.1//EN" "http://www.w3.org/Graphics/SVG/1.1/DTD/svg11.dtd">
<svg version="1.1" id="Layer_1" xmlns="http://www.w3.org/2000/svg" xmlns:xlink="http://www.w3.org/1999/xlink" x="0px" y="0px"
	 viewBox="0 0 72 72" enable-background="new 0 0 72 72" xml:space="preserve">
<g>
	<g>
		<g>
			<circle fill="#F1F2F2" cx="36" cy="36.1" r="36"/>
		</g>
	</g>
	<g>
		<g>
			<path fill="#06A1F9" d="M30.968,41.28c0.768-0.915,1.52-1.809,2.271-2.704c5.454-6.501,10.909-13.002,16.363-19.502
				c0.35-0.417,0.599-0.435,1.023-0.078c1.855,1.556,3.71,3.112,5.565,4.668c0.053,0.044,0.106,0.088,0.157,0.134
				c0.289,0.255,0.318,0.545,0.07,0.843c-0.768,0.921-1.54,1.839-2.311,2.757c-5.543,6.606-11.086,13.212-16.629,19.818
				c-1.659,1.978-3.319,3.955-4.978,5.933c-0.319,0.38-0.594,0.409-0.976,0.088c-3.465-2.906-6.928-5.813-10.392-8.719
				c-1.761-1.478-3.522-2.956-5.283-4.434c-0.064-0.054-0.13-0.107-0.193-0.163c-0.295-0.261-0.32-0.556-0.065-0.862
				c0.627-0.75,1.256-1.498,1.885-2.247c0.962-1.147,1.924-2.294,2.887-3.44c0.384-0.457,0.611-0.477,1.072-0.09
				c3.084,2.587,6.167,5.175,9.25,7.763C30.771,41.117,30.859,41.19,30.968,41.28z"/>
		</g>
	</g>
</g>
</svg>
